<svg xmlns="http://www.w3.org/2000/svg" xmlns:xlink="http://www.w3.org/1999/xlink" x="0px" y="0px"
	 viewBox="0 0 358.5 440" enable-background="new 0 0 358.5 440" xml:space="preserve" fill="#3b3b3b">
<g>
	<path d="M358,400.8c-0.6-3.5-1.2-6.9-1.8-10.3c-7.2-39.4-19-102-64.1-135.9c3.3-22.1,5-56.3,5-107.3C297.1,65.9,244.3,0,179.3,0
		c-44.4,0-72.6,31.4-72.6,31.4c-27.5,27-45.3,68.8-45.3,116c0,50.8,1.8,85.1,5,107.1C21.1,288.1,9.5,351.2,2.3,390.6
		c-0.6,3.4-1.2,6.9-1.8,10.3c-3.1,18.2,9.2,35.5,27.4,38.6c1.9,0.3,3.8,0.5,5.6,0.5l117,0l0,0l174.6-0.1c1.9,0,3.7-0.2,5.6-0.5
		C348.9,436.3,361.1,419,358,400.8z M179.3,324.4l-62.2-31.7l32.2-50.8c8.7,4.5,20.3,7,29.9,7c9.7,0,21-2.6,29.8-7.1l32.2,50.9
		L179.3,324.4z M179.3,226.9c-59.2,0-84.6-80-79.5-105c65-56.6,122.6-52.7,122.6-52.7s10.3,32.1,36.9,70.7
		C254.5,178.1,215.9,226.9,179.3,226.9z"/>
</g>
</svg>
