<svg xmlns="http://www.w3.org/2000/svg" xmlns:xlink="http://www.w3.org/1999/xlink"><symbol id="icon-heart" viewBox="0 0 770.2 648.4">
<path d="M746,99.7C715.8,49,683.8,29,653.4,14.9C622.8,0.7,570.1-7.5,519,9.7c-68.9,23.2-133.9,108.9-133.9,108.9
	s-65-85.7-133.9-108.9c-51.1-17.2-103.8-9-134.4,5.2C86.4,29,54.4,49,24.2,99.7c0,0-36.5,54.6-19.9,139.4c0,0,5.4,42.3,40.5,88.2
	c35.1,45.9,265.4,291.5,265.4,291.5s28,29.7,74.8,29.7s74.4-33.4,74.4-33.4s230.7-241.9,265.8-287.8c35.1-45.9,40.5-88.2,40.5-88.2
	C782.5,154.3,746,99.7,746,99.7z"/>
</symbol></svg>