<svg xmlns="http://www.w3.org/2000/svg" xmlns:xlink="http://www.w3.org/1999/xlink" x="0px" y="0px"
	 viewBox="0 0 35.9 45.7" enable-background="new 0 0 35.9 45.7" xml:space="preserve" fill="#fff">
<g>
	<g>
		<path d="M27.2,19.7c1.2-0.3,2.3-1.3,2.5-3.5c0.2-1.8-0.3-2.8-1-3.2c1.9-7.8-3.4-9.3-3.4-9.3s-3.9-6.7-11.6-2
			c-1,0.6-2.5,1.7-3.4,2.9c-1.5,1.5-2.4,4.1-2.6,8.1c-0.9,0.4-1.7,1.3-1.5,3.5c0.2,2.3,1.4,3.3,2.7,3.5c1.7,4.2,5.1,7.6,9.1,7.6
			C22.1,27.4,25.5,23.9,27.2,19.7z M18.1,25.4c-4.6,0-8.4-6.3-8.4-11.5c0-0.7,0-1.4,0.1-2c6.8,0.3,10.8-2.4,13-4.8
			c2.1,2.1,3.2,4.7,3.7,6.6c0,0.1,0,0.1,0,0.2C26.5,19.1,22.7,25.4,18.1,25.4z"/>
		<path d="M15.4,33.3l0.5-2.2c0.1-0.3,0.2-0.5,0.4-0.6c-0.1,0-0.1-0.1-0.2-0.1l-4.8-4L8.4,27C3.5,28.2,0,32.4,0,37.2v6.3
			c0,1.2,1.1,2.2,2.4,2.2h12.4l1.9-10.8C15.8,34.9,15.2,34.1,15.4,33.3z"/>
		<path d="M27.6,27l-2.9-0.7l-4.8,4c-0.1,0-0.1,0.1-0.2,0.1c0.2,0.2,0.3,0.4,0.4,0.6l0.5,2.2c0.2,0.8-0.4,1.6-1.3,1.6l1.9,10.8h12.4
			c1.3,0,2.3-1,2.3-2.2v-6.3C35.9,32.4,32.5,28.2,27.6,27z"/>
	</g>
</g>
</svg>
